# xmcd
#
# Track frame offsets: 
#        150
#        18307
#        38635
#        54362
#        71017
#        89440
#        104282
#        123675
#        144927
#        163872
#        179095
#        203995
#        221157
#        236937
#        256762
#
# Disc length: 3628 seconds
#
# Revision: 3
# Processed by: cddbd v1.5.2PL0 Copyright (c) Steve Scherf et al.
# Submitted via: ExactAudioCopy v1.3
#
DISCID=df0e2a0f
DTITLE=Various Artist - Blues Revue sampler Aug-Sep 2003
DYEAR=2003
DGENRE=Blues
TTITLE0=Albert Cummings - Your own way
TTITLE1=Long John Hunter and Tom "Blues Man" Hunter - One foot in Texas
TTITLE2=Otis Taylor - Rosa, Rosa
TTITLE3=Michael Burks - One more chance
TTITLE4=Fried Okra Jones and Watermelon Slim - Let it be in Memphis
TTITLE5=Mighty Sam McClain - What's your name
TTITLE6=Larry Thurston - Blues to go
TTITLE7=Tommy Castro - 44
TTITLE8=Gipsy Carns, the Blues Preacher - Searchin'
TTITLE9=George Thorogood and The Destroyers - Greedy man
TTITLE10=David Barrett and John Garcia - Don't fight it
TTITLE11=Johnny Nicholas and The Texas All-Stars - Rockin' my blues to s
TTITLE11=leep
TTITLE12=Shane Henry - 40 days and 40 nights
TTITLE13=Melissa Sigler - Merry Christmas, baby
TTITLE14=Cat Daddy Jones - Make a wish
EXTD=August September 2003
EXTT0=
EXTT1=
EXTT2=
EXTT3=
EXTT4=
EXTT5=
EXTT6=
EXTT7=
EXTT8=
EXTT9=
EXTT10=
EXTT11=
EXTT12=
EXTT13=
EXTT14=
PLAYORDER=
